<svg id="Слой_1" data-name="Слой 1" xmlns="http://www.w3.org/2000/svg" viewBox="0 0 1149.09 992.23"><defs><style>.cls-1{fill:#fff;}</style></defs><polygon class="cls-1" points="844.4 647.56 675.37 647.56 675.37 642.56 839.4 642.56 839.4 112.85 309.69 112.85 309.69 642.56 444.45 642.56 444.45 647.56 304.69 647.56 304.69 107.85 844.4 107.85 844.4 647.56"/><path class="cls-1" d="M812.23,110.35H776.48c-2,27.07-5.37,54-7.54,81.06-1.81,22.52-3.08,45.08-4,67.65-3.87,92.41-5.11,164.93-10.21,257.28-2.1,37.89-3.67,85-5.46,128.72h39.86c7-73.31,8.49-145.67,8.3-219.13-.25-91.87-1.75-184.73,10.74-276C810,136.82,811.23,123.6,812.23,110.35ZM783.29,557.28A8.11,8.11,0,0,1,769.44,563a8.36,8.36,0,0,1-2.38-5.73V540.22a8.12,8.12,0,0,1,13.85-5.74,8.4,8.4,0,0,1,2.38,5.74ZM782,243.6a8.26,8.26,0,0,1-8.12-8.11c-.19-4.38,3.87-8.12,8.12-8.12a8.26,8.26,0,0,1,8.11,8.12C790.31,239.87,786.24,243.6,782,243.6Z"/><path class="cls-1" d="M396.72,303.71c-2.61-21.46-5.7-30.42-5.19-52q.2-8.52.35-17c.75-41.46,2.71-82.87,4.84-124.28H366.35q-.14,23-.33,46c-.7,77.53-2.23,154.8-6.59,232.37-4.81,85.47-11,170.86-15.85,256.33h25.89c4.35-77.24,10.12-154.4,14.77-231.62q1.36-22.51,2.58-45C387.75,351.11,400.49,334.71,396.72,303.71Zm-32,220.75a8.26,8.26,0,0,1-8.11-8.12c-.2-4.38,3.87-8.11,8.11-8.11a8.26,8.26,0,0,1,8.12,8.11C373,520.73,368.94,524.46,364.69,524.46Zm21.69-208a8.43,8.43,0,0,1-2.38,5.74,8.07,8.07,0,0,1-3.58,2.09l-2.15.29a9,9,0,0,1-5.74-2.38,6.07,6.07,0,0,1-1.68-2.61,6.13,6.13,0,0,1-.7-3.13v-8a8.41,8.41,0,0,1,2.38-5.73,8.12,8.12,0,0,1,3.58-2.09l2.16-.29a8.35,8.35,0,0,1,8.11,8.11Z"/><path class="cls-1" d="M139.78,758.7l-10.2,9.46V793H115.52V688.74h14.06v63.45l35.79-33.13h17.3L150,749.23,185.78,793H167.59Z"/><path class="cls-1" d="M206.63,789.39a38.26,38.26,0,0,1,0-66.71,39.88,39.88,0,0,1,20-5.1,39.2,39.2,0,0,1,19.75,5.1,38.36,38.36,0,0,1,0,66.71,39.2,39.2,0,0,1-19.75,5.1A39.88,39.88,0,0,1,206.63,789.39ZM239,778.15A24.08,24.08,0,0,0,247.9,769a27.41,27.41,0,0,0,0-25.89,24,24,0,0,0-21.3-12.5A24.54,24.54,0,0,0,214,733.92a23.83,23.83,0,0,0-9,9.17A27.33,27.33,0,0,0,205,769a23.83,23.83,0,0,0,9,9.17,24.63,24.63,0,0,0,12.64,3.32A24,24,0,0,0,239,778.15Z"/><path class="cls-1" d="M339.45,722.53A34.76,34.76,0,0,1,352,736.21a45.09,45.09,0,0,1,0,39.64,34.63,34.63,0,0,1-12.57,13.68,32.93,32.93,0,0,1-17.75,5,30.09,30.09,0,0,1-13.9-3.33,32.75,32.75,0,0,1-11.09-9.24v36.23h-14V719.06H296v12a34,34,0,0,1,11.39-9.91,29.93,29.93,0,0,1,14.34-3.55A33,33,0,0,1,339.45,722.53ZM331,778.22a22.51,22.51,0,0,0,8.14-9.1,30.52,30.52,0,0,0,0-26.18,22.54,22.54,0,0,0-8.14-9.09,21.5,21.5,0,0,0-11.68-3.26,22.11,22.11,0,0,0-20.12,12.35,30.42,30.42,0,0,0,0,26.18,22.06,22.06,0,0,0,20.12,12.35A21.49,21.49,0,0,0,331,778.22Z"/><path class="cls-1" d="M387.07,789.39a38.27,38.27,0,0,1,0-66.71,39.88,39.88,0,0,1,20-5.1,39.2,39.2,0,0,1,19.75,5.1,38.36,38.36,0,0,1,0,66.71,39.2,39.2,0,0,1-19.75,5.1A39.88,39.88,0,0,1,387.07,789.39Zm32.39-11.24a24.08,24.08,0,0,0,8.88-9.17,27.41,27.41,0,0,0,0-25.89,24,24,0,0,0-21.3-12.5,24.56,24.56,0,0,0-12.64,3.33,23.83,23.83,0,0,0-8.95,9.17,27.33,27.33,0,0,0,0,25.89,23.83,23.83,0,0,0,8.95,9.17A24.65,24.65,0,0,0,407,781.47,24,24,0,0,0,419.46,778.15Z"/><path class="cls-1" d="M517.52,793l-25.43-60L466.5,793H451.26l31.8-74H501.4l31.8,74Z"/><path class="cls-1" d="M596.14,722.46a39.37,39.37,0,0,0-19.9-4.88,38.46,38.46,0,0,0-19.45,4.95,35.23,35.23,0,0,0-13.53,13.76,42.39,42.39,0,0,0,0,39.49,35,35,0,0,0,13.61,13.75,38.73,38.73,0,0,0,19.52,5,37.58,37.58,0,0,0,21.74-6.58A33.28,33.28,0,0,0,611.3,771H596.8q-6.06,10.51-20.41,10.5A23.56,23.56,0,0,1,553,761.8h60.64c.1-1,.15-2.51.15-4.58a45.4,45.4,0,0,0-4.58-20.93A32.87,32.87,0,0,0,596.14,722.46Zm-43,27.07a23.22,23.22,0,0,1,7.76-14A22.11,22.11,0,0,1,576,730a23.09,23.09,0,0,1,15.45,5.33,20.54,20.54,0,0,1,7.18,14.2Z"/><path class="cls-1" d="M692.94,772.16a19.07,19.07,0,0,1-6.66,15Q679.62,793,667.94,793H630.82v-74h37.12q11.1,0,17.53,5.69a19.36,19.36,0,0,1,4,23.82,17.2,17.2,0,0,1-7.47,6.72Q692.94,760.77,692.94,772.16Zm-26.62-22.34c3.64,0,6.4-.83,8.28-2.51s2.81-4.14,2.81-7.4q0-9-11.09-9H644.57v18.93Zm9.09,28.77c2-1.72,3-4.22,3-7.47a8.48,8.48,0,0,0-3-7q-3-2.45-8.95-2.45H644.57v19.53h21.89Q672.39,781.18,675.41,778.59Z"/><path class="cls-1" d="M709.21,736.58a37.68,37.68,0,0,1,14.2-13.9,39.85,39.85,0,0,1,20-5.1,36.59,36.59,0,0,1,22.11,7.17,33.31,33.31,0,0,1,12.95,18.71H763a20.15,20.15,0,0,0-8.06-9.39,22.73,22.73,0,0,0-12.35-3.48,23.13,23.13,0,0,0-21,12.5,28.58,28.58,0,0,0,0,25.89,23.09,23.09,0,0,0,21,12.49A22.73,22.73,0,0,0,755,778a20.15,20.15,0,0,0,8.06-9.39h15.39a33.31,33.31,0,0,1-12.95,18.71,36.59,36.59,0,0,1-22.11,7.17,39.85,39.85,0,0,1-20-5.1,38.62,38.62,0,0,1-14.2-52.81Z"/><path class="cls-1" d="M818.21,758.7,808,768.16V793H794V688.74H808v63.45l35.79-33.13h17.3l-32.68,30.17L864.21,793H846Z"/><path class="cls-1" d="M941.86,719.06v74H928.55V781.18A31.21,31.21,0,0,1,918,790.87a27.75,27.75,0,0,1-13.82,3.62,33.66,33.66,0,0,1-16.2-3.85A27.8,27.8,0,0,1,876.56,779q-4.21-7.75-4.21-19v-41h14v40.67q0,9.76,5.77,15.53A19.62,19.62,0,0,0,906.66,781a20.52,20.52,0,0,0,11.17-3,20.16,20.16,0,0,0,7.39-8.21,24.73,24.73,0,0,0,2.59-11.24V719.06Z"/><path class="cls-1" d="M1033.56,719.06v74h-13.31V781.18a31.27,31.27,0,0,1-10.57,9.69,27.79,27.79,0,0,1-13.83,3.62,33.66,33.66,0,0,1-16.2-3.85A27.8,27.8,0,0,1,968.26,779q-4.21-7.75-4.21-19v-41H978.1v40.67q0,9.76,5.77,15.53A19.62,19.62,0,0,0,998.36,781a20.52,20.52,0,0,0,11.17-3,20.16,20.16,0,0,0,7.39-8.21,24.73,24.73,0,0,0,2.59-11.24V719.06Zm-52.95-13.31a22.67,22.67,0,0,1-8.28-16.27h12.13a12.89,12.89,0,0,0,4.73,8.8q4,3.18,10.35,3.18t10.36-3.18a12.89,12.89,0,0,0,4.73-8.8h12.13a22.67,22.67,0,0,1-8.28,16.27q-7.41,6.06-18.94,6.06T980.61,705.75Z"/><path class="cls-1" d="M199.85,861.52v-3.07h12.33a11.33,11.33,0,0,0-4.09-6.58,12.73,12.73,0,0,0-17.63,2.29l-2.82-1.75a11.6,11.6,0,0,1,5.25-4.75A16.89,16.89,0,0,1,200.3,846a15.21,15.21,0,0,1,11.1,4.29,14.07,14.07,0,0,1,4.38,10.45,13.68,13.68,0,0,1-4.25,10.06A14.91,14.91,0,0,1,200.58,875a18.19,18.19,0,0,1-7.42-1.56,12.21,12.21,0,0,1-5.52-4.7l2.82-1.86a12.18,12.18,0,0,0,10,4.85,11.94,11.94,0,0,0,7.92-2.78,10.84,10.84,0,0,0,3.82-7.42Z"/><path class="cls-1" d="M232.75,846.68h3.55v11.63l12.79-11.63H254l-14,12.63,15.11,15h-5l-12.7-12.76-1.11,1v11.77h-3.55Z"/><path class="cls-1" d="M282.28,846a13.66,13.66,0,0,1,10.57,4.62,14.81,14.81,0,0,1-.21,20.08,14.61,14.61,0,0,1-20.74,0,14.78,14.78,0,0,1-.21-20.06A13.65,13.65,0,0,1,282.28,846Zm0,3.48a10.25,10.25,0,0,0-7.61,3.27,10.94,10.94,0,0,0-3.18,7.91,11.23,11.23,0,0,0,1.45,5.59,10.23,10.23,0,0,0,3.92,4,11.12,11.12,0,0,0,10.84,0,10.23,10.23,0,0,0,3.92-4,11.23,11.23,0,0,0,1.45-5.59,10.9,10.9,0,0,0-3.19-7.91A10.26,10.26,0,0,0,282.27,849.45Z"/><path class="cls-1" d="M337,874.28h-3.78L324,854.18l-9.16,20.1H311l12.66-27.6h.63Z"/><path class="cls-1" d="M365.88,846a13.66,13.66,0,0,1,10.57,4.62,14.83,14.83,0,0,1-.21,20.08,14.61,14.61,0,0,1-20.74,0,14.79,14.79,0,0,1-.22-20.06A13.69,13.69,0,0,1,365.88,846Zm0,3.48a10.27,10.27,0,0,0-7.62,3.27,10.94,10.94,0,0,0-3.18,7.91,11.34,11.34,0,0,0,1.45,5.59,10.37,10.37,0,0,0,3.92,4,11.14,11.14,0,0,0,10.85,0,10.3,10.3,0,0,0,3.92-4,11.23,11.23,0,0,0,1.45-5.59,10.9,10.9,0,0,0-3.19-7.91A10.29,10.29,0,0,0,365.87,849.45Z"/><path class="cls-1" d="M400.78,849.8v24.48h-3.56v-27.6h14v3.12Z"/><path class="cls-1" d="M429.92,846.68V867.1l20.27-20.42h.27v27.6h-3.55V854.05l-20.12,20.23h-.43v-27.6Z"/><path class="cls-1" d="M481.1,861.83h-6.23q-4.23,0-6.27-2.19a8.51,8.51,0,0,1-2-6.06v-6.9H470v5c0,3.21.45,5.2,1.37,6s2.41,1.16,4.5,1.16h5.19V846.68h3.55v27.6H481.1Z"/><path class="cls-1" d="M526.2,865.12l3,1.58a16.48,16.48,0,0,1-3.4,4.67,13.74,13.74,0,0,1-4.34,2.7A15.32,15.32,0,0,1,516,875q-6.76,0-10.57-4.42a14.94,14.94,0,0,1-3.81-10,14.76,14.76,0,0,1,3.23-9.36A13.16,13.16,0,0,1,515.78,846a13.64,13.64,0,0,1,11.28,5.35,15,15,0,0,1,3,9.44H505.27a11.17,11.17,0,0,0,3.07,7.88,9.77,9.77,0,0,0,7.34,3.08,11.74,11.74,0,0,0,4.1-.73,10.77,10.77,0,0,0,3.39-2A16.66,16.66,0,0,0,526.2,865.12Zm0-7.43a12,12,0,0,0-2.07-4.54,9.85,9.85,0,0,0-3.6-2.74,11,11,0,0,0-4.7-1,10.1,10.1,0,0,0-7,2.61,11.77,11.77,0,0,0-3.23,5.71Z"/><path class="cls-1" d="M573.91,852.41l-2.82,1.75a11.79,11.79,0,0,0-10-4.84,11.52,11.52,0,0,0-8.37,3.24,10.57,10.57,0,0,0-3.34,7.88,11.22,11.22,0,0,0,1.54,5.68,10.76,10.76,0,0,0,4.2,4.13,12.26,12.26,0,0,0,6,1.47,12.1,12.1,0,0,0,9.93-4.85l2.82,1.86a13.42,13.42,0,0,1-5.32,4.62A16.91,16.91,0,0,1,561,875a15,15,0,0,1-10.86-4.16,13.55,13.55,0,0,1-4.31-10.12,14.45,14.45,0,0,1,2-7.45,14.14,14.14,0,0,1,5.54-5.36,16.12,16.12,0,0,1,7.89-1.93,16.78,16.78,0,0,1,5.29.84,14.77,14.77,0,0,1,4.33,2.18A12.07,12.07,0,0,1,573.91,852.41Z"/><path class="cls-1" d="M591.12,846.68h3.55v11.63l12.79-11.63h4.95l-14,12.63,15.11,15h-5l-12.69-12.76-1.12,1v11.77h-3.55Z"/><path class="cls-1" d="M631.14,846.68V867.1l20.27-20.42h.28v27.6h-3.55V854.05L628,874.28h-.43v-27.6Z"/><path class="cls-1" d="M673.55,846.68V867.1l20.27-20.42h.28v27.6h-3.55V854.05l-20.12,20.23H670v-27.6ZM673,835.59h3.35a5.42,5.42,0,0,0,2.31,2,8.23,8.23,0,0,0,3.45.66,7.76,7.76,0,0,0,3.27-.58,6.46,6.46,0,0,0,2.36-2.06H691a6.35,6.35,0,0,1-2.85,3.82,10.7,10.7,0,0,1-6.06,1.54,11.16,11.16,0,0,1-6.08-1.51A6.6,6.6,0,0,1,673,835.59Z"/><path class="cls-1" d="M787.76,874.28H762v-27.6h3.55v24.25h16.06V846.68h3.55v24.25h6v7.72h-3.35Z"/><path class="cls-1" d="M829.5,865.12l3,1.58a16.31,16.31,0,0,1-3.41,4.67,13.52,13.52,0,0,1-4.34,2.7,15.32,15.32,0,0,1-5.46.92q-6.75,0-10.56-4.42a14.94,14.94,0,0,1-3.81-10,14.76,14.76,0,0,1,3.23-9.36A13.16,13.16,0,0,1,819.09,846a13.62,13.62,0,0,1,11.27,5.35,14.92,14.92,0,0,1,3,9.44H808.57a11.22,11.22,0,0,0,3.08,7.88,9.77,9.77,0,0,0,7.34,3.08,11.78,11.78,0,0,0,4.1-.73,10.77,10.77,0,0,0,3.39-2A16.41,16.41,0,0,0,829.5,865.12Zm0-7.43a11.66,11.66,0,0,0-2.07-4.54,9.73,9.73,0,0,0-3.59-2.74,11.07,11.07,0,0,0-4.7-1,10.1,10.1,0,0,0-7,2.61,11.77,11.77,0,0,0-3.23,5.71Z"/><path class="cls-1" d="M870,861H854v13.29h-3.56v-27.6H854v11h16v-11h3.55v27.6H870Z"/><path class="cls-1" d="M888.8,846.68H907v3.07h-7.31v24.53H896.1V849.75h-7.3Z"/><path class="cls-1" d="M922.22,846.68h3.55v5.07a14.32,14.32,0,0,1,4.85-4.33,12.78,12.78,0,0,1,6.1-1.45,13.59,13.59,0,0,1,10.06,4.24,14,14,0,0,1,4.19,10.2,14.26,14.26,0,0,1-4.15,10.33,13.94,13.94,0,0,1-16.05,2.88,15.27,15.27,0,0,1-5-4.08v14.84h-3.55Zm14.21,2.72a10.45,10.45,0,0,0-7.76,3.21,11,11,0,0,0-3.15,8,11.31,11.31,0,0,0,1.41,5.65,10.19,10.19,0,0,0,4,4,11.14,11.14,0,0,0,5.53,1.47,10.41,10.41,0,0,0,5.38-1.48,10.89,10.89,0,0,0,4-4.15,11.19,11.19,0,0,0,0-11.14,10.64,10.64,0,0,0-9.45-5.55Z"/><path class="cls-1" d="M724.58,285.52C723.45,238.76,716.51,191.74,714,145q-.93-17.34-1.8-34.68H673c3.42,73.91,6.66,147.76,8,221.8.83,45.55,2.59,91-.07,136.42-1.43,24.58-3.13,49.15-4.41,73.75,7.88,8.54,12.51,21.3,13.27,37.27,1,19.85-4.17,43-14.41,65.17,0,.1,0,.2,0,.3h41.42c-1.12-28-1.36-56-1-84.06.67-46.51,3.19-93,5.24-139.42q.48-11,.68-21.95C722.47,361.52,725.49,323.68,724.58,285.52Zm-5,68.22a8.47,8.47,0,0,1-2.37,5.74,8.11,8.11,0,0,1-11.48,0,8.38,8.38,0,0,1-2.37-5.74v-12.5a8.42,8.42,0,0,1,2.37-5.74,8.11,8.11,0,0,1,11.48,0,8.36,8.36,0,0,1,2.37,5.74Z"/><ellipse class="cls-1" cx="624.55" cy="620.51" rx="85.15" ry="44.54" transform="translate(-201.09 926.15) rotate(-65.13)"/><ellipse class="cls-1" cx="502.32" cy="641.48" rx="37.75" ry="72.18" transform="translate(-302.56 515.04) rotate(-43.01)"/><path class="cls-1" d="M638.42,532.22c3.53-49.25,7.17-98.49,9.93-147.79,1.35-24.06-.5-48.42,3.32-72.21,11-68.39,7.69-135.14,11.41-201.87H636.82c-2,21.19-4,42.38-5.46,63.6-5.29,78.65-5.46,157.55-10.27,236.17-2.81,45.67-6.35,91.28-9.72,136.9C620.21,539.69,629.41,534.61,638.42,532.22Z"/><path class="cls-1" d="M538.22,609a137.74,137.74,0,0,1,22.43,31.82A161,161,0,0,1,573.86,598a170.62,170.62,0,0,1,13.33-23.7q.59-9.51,1.16-19C592.83,482,588,408.37,592.87,335c3-45.77,3-91.69,2.3-137.54-.45-29.06-.21-58.08.3-87.11H526.28c-2,35.15-4.86,70.17-5.11,105.54-.56,81.72-5.82,167.8-7.6,249.85-.93,42.52,2.82,82.87,3.35,124.49A142.29,142.29,0,0,1,538.22,609Zm27.89-68.78A8.11,8.11,0,0,1,552.26,546a8.39,8.39,0,0,1-2.38-5.74V523.17a8.11,8.11,0,0,1,13.85-5.74,8.39,8.39,0,0,1,2.38,5.74Zm-1.29-90.81a8.26,8.26,0,0,1-8.12-8.11c-.19-4.38,3.87-8.12,8.12-8.12a8.26,8.26,0,0,1,8.11,8.12C573.13,445.68,569.06,449.41,564.82,449.41Zm12.94-190c.2,4.38-3.87,8.11-8.11,8.11a8.25,8.25,0,0,1-8.11-8.11c-.2-4.39,3.87-8.12,8.11-8.12A8.25,8.25,0,0,1,577.76,259.37Zm-40.28-66a8.35,8.35,0,0,1,5.73-2.37H558a8.47,8.47,0,0,1,5.74,2.37,8.11,8.11,0,0,1,0,11.48,8.37,8.37,0,0,1-5.74,2.38H543.21a8.39,8.39,0,0,1-5.73-2.38,8.16,8.16,0,0,1-2.38-5.74A8.25,8.25,0,0,1,537.48,193.36Zm-9.1,176.25a8.39,8.39,0,0,1,5.74-2.38h17a8.12,8.12,0,0,1,0,16.23h-17a8.11,8.11,0,0,1-5.74-13.85Zm-4.93,100.24a6.09,6.09,0,0,1,1.68-2.61,6,6,0,0,1,2.61-1.67,6.09,6.09,0,0,1,3.12-.7h8a8.47,8.47,0,0,1,5.74,2.37,8.18,8.18,0,0,1,2.09,3.58c.09.72.19,1.44.29,2.16a9,9,0,0,1-2.38,5.74,8.93,8.93,0,0,1-5.74,2.37h-8a8.38,8.38,0,0,1-5.73-2.37,8,8,0,0,1-2.09-3.58c-.1-.72-.19-1.44-.29-2.16A6.13,6.13,0,0,1,523.45,469.85Z"/><path class="cls-1" d="M445.35,581.41c7.87-7.34,18.89-10.28,31.87-8.51A66.19,66.19,0,0,1,487,575c-.15-91.72,4.78-181.25,1.79-273,0-23.21-5.88-48.72-7.38-71.86-.85-13.15-1.72-26.28-2.35-39.36q-1.93-40.22-3.72-80.44H423.37c4.21,84.27,8.76,168.57,12.28,252.82.5,12,.85,24.08,1,36.12q.54,68.49-1.94,137c-1.33,36.2-.38,72.49.75,108.74h9a99.17,99.17,0,0,1-7.4-18.68C431.79,607.28,434.74,591.31,445.35,581.41Zm12.58-389.28a8.26,8.26,0,0,1,8.12,8.11c.19,4.38-3.87,8.11-8.12,8.11a8.25,8.25,0,0,1-8.11-8.11C449.62,195.86,453.69,192.13,457.93,192.13Zm9.25,137.73c.2,4.39-3.87,8.12-8.11,8.12a8.25,8.25,0,0,1-8.11-8.12c-.2-4.38,3.87-8.11,8.11-8.11A8.25,8.25,0,0,1,467.18,329.86ZM444,417.55a6.07,6.07,0,0,1,1.68-2.61,9,9,0,0,1,5.74-2.38h8a8.43,8.43,0,0,1,5.74,2.38,8.05,8.05,0,0,1,2.08,3.58c.1.72.2,1.43.29,2.15a6.13,6.13,0,0,1-.7,3.13,6,6,0,0,1-1.67,2.61,6.16,6.16,0,0,1-2.62,1.68,6.07,6.07,0,0,1-3.12.7h-8a8.43,8.43,0,0,1-5.74-2.38,8.1,8.1,0,0,1-2.08-3.58c-.1-.72-.2-1.44-.29-2.16A6.08,6.08,0,0,1,444,417.55Z"/></svg>