<svg id="Слой_1" data-name="Слой 1" xmlns="http://www.w3.org/2000/svg" viewBox="0 0 1149.09 992.23"><defs><style>.cls-1{fill:#004749;}.cls-2{fill:#fff;}.cls-3{fill:#010000;}.cls-4{fill:#00bc1f;}</style></defs><rect class="cls-1" x="307.19" y="110.11" width="534.71" height="532.91"/><path class="cls-2" d="M789.11,643.81c7-73.31,8.49-145.67,8.3-219.13-.25-91.87-1.75-184.73,10.74-276,1.81-13.15,3.08-26.37,4.08-39.62H776.48c-2,27.07-5.37,54-7.54,81.06-1.81,22.52-3.08,45.08-4,67.65-3.87,92.41-5.11,164.93-10.21,257.28-2.1,37.89-3.67,85-5.46,128.72Z"/><path class="cls-2" d="M680.91,467.32c-2.7,46.27-6.33,92.53-6.39,138.91,0,12.53.25,25.06.85,37.58h41.42c-1.12-28-1.36-56-1-84.06.67-46.51,3.19-93,5.24-139.42q.48-11,.68-21.95c.72-38.11,3.74-75.95,2.83-114.11-1.13-46.76-8.07-93.78-10.56-140.49q-.93-17.34-1.8-34.68H673c3.42,73.91,6.66,147.76,8,221.8C681.81,376.45,683.57,421.87,680.91,467.32Z"/><path class="cls-2" d="M630.72,643.81q2-30.07,4-60.15c4.51-66.83,9.88-133.6,13.62-200.48,1.35-24.06-.5-48.42,3.32-72.21,11-68.39,7.69-135.14,11.41-201.87H636.82c-2,21.19-4,42.38-5.46,63.6-5.29,78.65-5.46,157.55-10.27,236.17C616.69,480.3,610.51,551.6,606,623c-.47,7.46-.91,14.37-1.31,20.8Z"/><path class="cls-2" d="M516.58,621c-.05,1.3-.29,12.12-.75,22.82h66.59c.74-9.27,1.57-18,1.64-19.26q2.12-35.25,4.29-70.5c4.48-73.29-.36-146.93,4.52-220.3,3-45.77,3-91.69,2.3-137.54-.45-29.06-.21-58.08.3-87.11H526.28c-2,35.15-4.86,70.17-5.11,105.54-.56,81.72-5.82,167.8-7.6,249.85C512.41,517.81,518.61,567.7,516.58,621Z"/><path class="cls-2" d="M436.6,398q.54,68.49-1.94,137c-1.33,36.2-.38,72.49.75,108.74h51.85c-.28-28.89-.29-61.29-.31-65.69-.31-93.25,4.83-184.15,1.79-277.36,0-23.21-5.88-48.72-7.38-71.86-.85-13.15-1.72-26.28-2.35-39.36q-1.93-40.22-3.72-80.44H423.37c4.21,84.27,8.76,168.57,12.28,252.82C436.15,374,436.5,386,436.6,398Z"/><path class="cls-2" d="M369.47,643.81c4.35-77.24,10.12-154.4,14.77-231.62q1.36-22.51,2.58-45c.93-17.31,13.67-33.71,9.9-64.71-2.61-21.46-5.7-30.42-5.19-52q.2-8.52.35-17c.75-41.46,2.71-82.87,4.84-124.28H366.35q-.14,23-.33,46c-.7,77.53-2.23,154.8-6.59,232.37-4.81,85.47-11,170.86-15.85,256.33Z"/><path class="cls-1" d="M564.82,448.16c4.24,0,8.31-3.73,8.11-8.11a8.26,8.26,0,0,0-8.11-8.12c-4.25,0-8.31,3.74-8.12,8.12a8.26,8.26,0,0,0,8.12,8.11Z"/><path class="cls-1" d="M566.11,539V521.92a8.39,8.39,0,0,0-2.38-5.74,8.11,8.11,0,0,0-13.85,5.74V539a8.39,8.39,0,0,0,2.38,5.74A8.11,8.11,0,0,0,566.11,539Z"/><path class="cls-1" d="M783.29,556V539a8.4,8.4,0,0,0-2.38-5.74A8.12,8.12,0,0,0,767.06,539V556a8.36,8.36,0,0,0,2.38,5.73A8.11,8.11,0,0,0,783.29,556Z"/><path class="cls-1" d="M543.21,206H558a8.37,8.37,0,0,0,5.74-2.38,8.11,8.11,0,0,0,0-11.48,8.47,8.47,0,0,0-5.74-2.37H543.21a8.35,8.35,0,0,0-5.73,2.37,8.25,8.25,0,0,0-2.38,5.74,8.16,8.16,0,0,0,2.38,5.74,8.39,8.39,0,0,0,5.73,2.38Z"/><path class="cls-1" d="M719.61,352.49V340a8.36,8.36,0,0,0-2.37-5.74,8.11,8.11,0,0,0-11.48,0,8.42,8.42,0,0,0-2.37,5.74v12.5a8.38,8.38,0,0,0,2.37,5.74,8.11,8.11,0,0,0,11.48,0,8.47,8.47,0,0,0,2.37-5.74Z"/><path class="cls-1" d="M782,242.35c4.24,0,8.31-3.73,8.11-8.11a8.26,8.26,0,0,0-8.11-8.12c-4.25,0-8.31,3.74-8.12,8.12a8.26,8.26,0,0,0,8.12,8.11Z"/><path class="cls-1" d="M569.65,266.23c4.24,0,8.31-3.73,8.11-8.11a8.25,8.25,0,0,0-8.11-8.12c-4.24,0-8.31,3.73-8.11,8.12a8.25,8.25,0,0,0,8.11,8.11Z"/><path class="cls-1" d="M459.07,336.73c4.24,0,8.31-3.73,8.11-8.12a8.25,8.25,0,0,0-8.11-8.11c-4.24,0-8.31,3.73-8.11,8.11a8.25,8.25,0,0,0,8.11,8.12Z"/><path class="cls-1" d="M457.93,207.1c4.25,0,8.31-3.73,8.12-8.11a8.26,8.26,0,0,0-8.12-8.11c-4.24,0-8.31,3.73-8.11,8.11a8.25,8.25,0,0,0,8.11,8.11Z"/><path class="cls-1" d="M534.12,382.21h17a8.34,8.34,0,0,0,5.74-2.38A8.11,8.11,0,0,0,551.17,366h-17a8.39,8.39,0,0,0-5.74,2.38,8.11,8.11,0,0,0,5.74,13.85Z"/><path class="cls-1" d="M364.69,523.21c4.25,0,8.31-3.74,8.12-8.12a8.26,8.26,0,0,0-8.12-8.11c-4.24,0-8.31,3.73-8.11,8.11a8.26,8.26,0,0,0,8.11,8.12Z"/><path class="cls-1" d="M451.44,427.54h8a6.07,6.07,0,0,0,3.12-.7,6.16,6.16,0,0,0,2.62-1.68,6,6,0,0,0,1.67-2.61,6.13,6.13,0,0,0,.7-3.13l-.29-2.15a8.05,8.05,0,0,0-2.08-3.58,8.43,8.43,0,0,0-5.74-2.38h-8a9,9,0,0,0-5.74,2.38,8.94,8.94,0,0,0-2.37,5.73l.29,2.16a8.1,8.1,0,0,0,2.08,3.58,8.43,8.43,0,0,0,5.74,2.38Z"/><path class="cls-1" d="M546.65,469.57a8.18,8.18,0,0,0-2.09-3.58,8.47,8.47,0,0,0-5.74-2.37h-8a9.08,9.08,0,0,0-5.73,2.37,9,9,0,0,0-2.38,5.74c.1.72.19,1.44.29,2.16a8,8,0,0,0,2.09,3.58,8.38,8.38,0,0,0,5.73,2.37h8a8.93,8.93,0,0,0,5.74-2.37,9,9,0,0,0,2.38-5.74C546.84,471,546.74,470.29,546.65,469.57Z"/><path class="cls-1" d="M376.11,299.47a8.12,8.12,0,0,0-3.58,2.09,8.41,8.41,0,0,0-2.38,5.73v8a6.13,6.13,0,0,0,.7,3.13,7.33,7.33,0,0,0,4.29,4.29,6.13,6.13,0,0,0,3.13.7l2.15-.29A8.07,8.07,0,0,0,384,321a8.43,8.43,0,0,0,2.38-5.74v-8a6.11,6.11,0,0,0-.7-3.12,6,6,0,0,0-1.68-2.61,9,9,0,0,0-5.73-2.38Z"/><path class="cls-1" d="M139.78,757.45l-10.2,9.46v24.85H115.52V687.49h14.06v63.45l35.79-33.13h17.3L150,748l35.79,43.78H167.59Z"/><path class="cls-1" d="M206.63,788.14a38.26,38.26,0,0,1,0-66.71,39.88,39.88,0,0,1,20-5.1,39.2,39.2,0,0,1,19.75,5.1,38.36,38.36,0,0,1,0,66.71,39.2,39.2,0,0,1-19.75,5.1A39.88,39.88,0,0,1,206.63,788.14ZM239,776.9a24.08,24.08,0,0,0,8.88-9.17,27.41,27.41,0,0,0,0-25.89,24,24,0,0,0-21.3-12.5A24.54,24.54,0,0,0,214,732.67a23.83,23.83,0,0,0-9,9.17,27.33,27.33,0,0,0,0,25.89,23.83,23.83,0,0,0,9,9.17,24.63,24.63,0,0,0,12.64,3.32A24,24,0,0,0,239,776.9Z"/><path class="cls-1" d="M339.45,721.28A34.76,34.76,0,0,1,352,735a45.09,45.09,0,0,1,0,39.64,34.63,34.63,0,0,1-12.57,13.68,32.93,32.93,0,0,1-17.75,5,30.09,30.09,0,0,1-13.9-3.33,32.75,32.75,0,0,1-11.09-9.24V816.9h-14V717.81H296v12a34,34,0,0,1,11.39-9.91,29.93,29.93,0,0,1,14.34-3.55A33,33,0,0,1,339.45,721.28ZM331,777a22.51,22.51,0,0,0,8.14-9.1,30.52,30.52,0,0,0,0-26.18A22.54,22.54,0,0,0,331,732.6a21.5,21.5,0,0,0-11.68-3.26,22.11,22.11,0,0,0-20.12,12.35,30.42,30.42,0,0,0,0,26.18,22.06,22.06,0,0,0,20.12,12.35A21.49,21.49,0,0,0,331,777Z"/><path class="cls-1" d="M387.07,788.14a38.27,38.27,0,0,1,0-66.71,39.88,39.88,0,0,1,20-5.1,39.2,39.2,0,0,1,19.75,5.1,38.36,38.36,0,0,1,0,66.71,39.2,39.2,0,0,1-19.75,5.1A39.88,39.88,0,0,1,387.07,788.14Zm32.39-11.24a24.08,24.08,0,0,0,8.88-9.17,27.41,27.41,0,0,0,0-25.89,24,24,0,0,0-21.3-12.5,24.56,24.56,0,0,0-12.64,3.33,23.83,23.83,0,0,0-8.95,9.17,27.33,27.33,0,0,0,0,25.89,23.83,23.83,0,0,0,8.95,9.17A24.65,24.65,0,0,0,407,780.22,24,24,0,0,0,419.46,776.9Z"/><path class="cls-1" d="M517.52,791.76l-25.43-60-25.59,60H451.26l31.8-74H501.4l31.8,74Z"/><path class="cls-1" d="M596.14,721.21a39.37,39.37,0,0,0-19.9-4.88,38.46,38.46,0,0,0-19.45,4.95A35.23,35.23,0,0,0,543.26,735a42.39,42.39,0,0,0,0,39.49,35,35,0,0,0,13.61,13.75,38.73,38.73,0,0,0,19.52,5,37.58,37.58,0,0,0,21.74-6.58,33.28,33.28,0,0,0,13.17-16.94H596.8q-6.06,10.51-20.41,10.5A23.56,23.56,0,0,1,553,760.55h60.64c.1-1,.15-2.51.15-4.58A45.4,45.4,0,0,0,609.23,735,32.87,32.87,0,0,0,596.14,721.21Zm-43,27.07a23.22,23.22,0,0,1,7.76-14,22.11,22.11,0,0,1,15-5.48,23.09,23.09,0,0,1,15.45,5.33,20.54,20.54,0,0,1,7.18,14.2Z"/><path class="cls-1" d="M692.94,770.91a19.07,19.07,0,0,1-6.66,15q-6.66,5.83-18.34,5.84H630.82v-74h37.12q11.1,0,17.53,5.69a19.36,19.36,0,0,1,4,23.82A17.2,17.2,0,0,1,682,754Q692.94,759.52,692.94,770.91Zm-26.62-22.34q5.46,0,8.28-2.51c1.87-1.68,2.81-4.14,2.81-7.4q0-9-11.09-9H644.57v18.93Zm9.09,28.77c2-1.72,3-4.22,3-7.47a8.48,8.48,0,0,0-3-7q-3-2.45-8.95-2.45H644.57v19.53h21.89Q672.39,779.93,675.41,777.34Z"/><path class="cls-1" d="M709.21,735.33a37.68,37.68,0,0,1,14.2-13.9,39.85,39.85,0,0,1,20-5.1,36.59,36.59,0,0,1,22.11,7.17,33.31,33.31,0,0,1,12.95,18.71H763a20.15,20.15,0,0,0-8.06-9.39,22.73,22.73,0,0,0-12.35-3.48,23.13,23.13,0,0,0-21,12.5,28.58,28.58,0,0,0,0,25.89,23.09,23.09,0,0,0,21,12.49A22.73,22.73,0,0,0,755,776.75a20.15,20.15,0,0,0,8.06-9.39h15.39a33.31,33.31,0,0,1-12.95,18.71,36.59,36.59,0,0,1-22.11,7.17,39.85,39.85,0,0,1-20-5.1,38.62,38.62,0,0,1-14.2-52.81Z"/><path class="cls-1" d="M818.21,757.45,808,766.91v24.85H794V687.49H808v63.45l35.79-33.13h17.3L828.42,748l35.79,43.78H846Z"/><path class="cls-1" d="M941.86,717.81v74H928.55V779.93A31.21,31.21,0,0,1,918,789.62a27.75,27.75,0,0,1-13.82,3.62,33.66,33.66,0,0,1-16.2-3.85,27.8,27.8,0,0,1-11.39-11.61q-4.21-7.75-4.21-19v-41h14v40.67q0,9.76,5.77,15.53a19.62,19.62,0,0,0,14.49,5.77,20.52,20.52,0,0,0,11.17-3,20.16,20.16,0,0,0,7.39-8.21,24.73,24.73,0,0,0,2.59-11.24V717.81Z"/><path class="cls-1" d="M1033.56,717.81v74h-13.31V779.93a31.27,31.27,0,0,1-10.57,9.69,27.79,27.79,0,0,1-13.83,3.62,33.66,33.66,0,0,1-16.2-3.85,27.8,27.8,0,0,1-11.39-11.61q-4.21-7.75-4.21-19v-41H978.1v40.67q0,9.76,5.77,15.53a19.62,19.62,0,0,0,14.49,5.77,20.52,20.52,0,0,0,11.17-3,20.16,20.16,0,0,0,7.39-8.21,24.73,24.73,0,0,0,2.59-11.24V717.81ZM980.61,704.5a22.67,22.67,0,0,1-8.28-16.27h12.13a12.89,12.89,0,0,0,4.73,8.8q4,3.18,10.35,3.18T1009.9,697a12.89,12.89,0,0,0,4.73-8.8h12.13a22.67,22.67,0,0,1-8.28,16.27q-7.41,6.06-18.94,6.06T980.61,704.5Z"/><path class="cls-3" d="M199.85,860.27V857.2h12.33a11.33,11.33,0,0,0-4.09-6.58,12.73,12.73,0,0,0-17.63,2.29l-2.82-1.75a11.6,11.6,0,0,1,5.25-4.75,16.89,16.89,0,0,1,7.41-1.69A15.21,15.21,0,0,1,211.4,849a14.08,14.08,0,0,1,4.39,10.45,13.69,13.69,0,0,1-4.26,10.06,14.91,14.91,0,0,1-10.95,4.22,18.19,18.19,0,0,1-7.42-1.56,12.21,12.21,0,0,1-5.52-4.7l2.82-1.86a12.18,12.18,0,0,0,10,4.85,11.94,11.94,0,0,0,7.92-2.78,10.84,10.84,0,0,0,3.82-7.42Z"/><path class="cls-3" d="M232.75,845.43h3.55v11.63l12.79-11.63H254l-14,12.63,15.11,15h-5l-12.7-12.76-1.11,1V873h-3.55Z"/><path class="cls-3" d="M282.28,844.72a13.64,13.64,0,0,1,10.57,4.62,14.81,14.81,0,0,1-.21,20.08,14.61,14.61,0,0,1-20.74,0,14.78,14.78,0,0,1-.21-20.06A13.65,13.65,0,0,1,282.28,844.72Zm0,3.48a10.25,10.25,0,0,0-7.61,3.27,10.94,10.94,0,0,0-3.18,7.91,11.23,11.23,0,0,0,1.45,5.59,10.23,10.23,0,0,0,3.92,4,11.12,11.12,0,0,0,10.84,0,10.23,10.23,0,0,0,3.92-4,11.23,11.23,0,0,0,1.45-5.59,10.9,10.9,0,0,0-3.19-7.91A10.26,10.26,0,0,0,282.27,848.2Z"/><path class="cls-3" d="M337,873h-3.78L324,852.93,314.82,873H311l12.66-27.6h.63Z"/><path class="cls-3" d="M365.88,844.72a13.66,13.66,0,0,1,10.57,4.62,14.83,14.83,0,0,1-.21,20.08,14.61,14.61,0,0,1-20.74,0,14.79,14.79,0,0,1-.22-20.06A13.69,13.69,0,0,1,365.88,844.72Zm0,3.48a10.27,10.27,0,0,0-7.62,3.27,10.94,10.94,0,0,0-3.18,7.91,11.34,11.34,0,0,0,1.45,5.59,10.37,10.37,0,0,0,3.92,4,11.14,11.14,0,0,0,10.85,0,10.3,10.3,0,0,0,3.92-4,11.23,11.23,0,0,0,1.45-5.59,10.9,10.9,0,0,0-3.19-7.91A10.27,10.27,0,0,0,365.87,848.2Z"/><path class="cls-3" d="M400.78,848.55V873h-3.56v-27.6h14v3.12Z"/><path class="cls-3" d="M429.92,845.43v20.42l20.27-20.42h.27V873h-3.55V852.8L426.8,873h-.44v-27.6Z"/><path class="cls-3" d="M481.1,860.58h-6.23q-4.23,0-6.27-2.19a8.51,8.51,0,0,1-2-6.06v-6.9H470v5q0,4.82,1.37,6c.91.77,2.41,1.16,4.5,1.16h5.19V845.43h3.55V873H481.1Z"/><path class="cls-3" d="M526.2,863.87l3,1.58a16.48,16.48,0,0,1-3.4,4.67,13.74,13.74,0,0,1-4.34,2.7,15.32,15.32,0,0,1-5.46.92q-6.76,0-10.57-4.42a14.94,14.94,0,0,1-3.81-10,14.76,14.76,0,0,1,3.23-9.36,13.16,13.16,0,0,1,10.94-5.23,13.64,13.64,0,0,1,11.28,5.35,15,15,0,0,1,3,9.44H505.27a11.17,11.17,0,0,0,3.07,7.88,9.77,9.77,0,0,0,7.34,3.08,11.74,11.74,0,0,0,4.1-.73,10.77,10.77,0,0,0,3.39-2A16.66,16.66,0,0,0,526.2,863.87Zm0-7.43a12,12,0,0,0-2.07-4.54,9.85,9.85,0,0,0-3.6-2.74,11,11,0,0,0-4.7-1,10.1,10.1,0,0,0-7,2.61,11.85,11.85,0,0,0-3.23,5.71Z"/><path class="cls-3" d="M573.91,851.16l-2.82,1.75a11.79,11.79,0,0,0-10-4.84,11.52,11.52,0,0,0-8.37,3.24,10.61,10.61,0,0,0-3.34,7.88,11.22,11.22,0,0,0,1.54,5.68,10.76,10.76,0,0,0,4.2,4.13,12.26,12.26,0,0,0,6,1.47,12.1,12.1,0,0,0,9.93-4.85l2.82,1.86a13.42,13.42,0,0,1-5.32,4.62,16.91,16.91,0,0,1-7.6,1.64,15,15,0,0,1-10.86-4.16,13.55,13.55,0,0,1-4.31-10.12,14.45,14.45,0,0,1,2-7.45,14.14,14.14,0,0,1,5.54-5.36,16.12,16.12,0,0,1,7.89-1.93,16.78,16.78,0,0,1,5.29.84,14.77,14.77,0,0,1,4.33,2.18A12.07,12.07,0,0,1,573.91,851.16Z"/><path class="cls-3" d="M591.12,845.43h3.55v11.63l12.79-11.63h4.95l-14,12.63,15.11,15h-5l-12.69-12.76-1.12,1V873h-3.55Z"/><path class="cls-3" d="M631.14,845.43v20.42l20.27-20.42h.28V873h-3.55V852.8L628,873h-.43v-27.6Z"/><path class="cls-3" d="M673.55,845.43v20.42l20.27-20.42h.28V873h-3.55V852.8L670.43,873H670v-27.6ZM673,834.34h3.35a5.42,5.42,0,0,0,2.31,2,8.23,8.23,0,0,0,3.45.66,7.76,7.76,0,0,0,3.27-.58,6.46,6.46,0,0,0,2.36-2.06H691a6.35,6.35,0,0,1-2.85,3.82,10.7,10.7,0,0,1-6.06,1.54,11.16,11.16,0,0,1-6.08-1.51A6.6,6.6,0,0,1,673,834.34Z"/><path class="cls-3" d="M787.76,873H762v-27.6h3.55v24.25h16.06V845.43h3.55v24.25h6v7.72h-3.35Z"/><path class="cls-3" d="M829.5,863.87l3,1.58a16.31,16.31,0,0,1-3.41,4.67,13.52,13.52,0,0,1-4.34,2.7,15.32,15.32,0,0,1-5.46.92q-6.75,0-10.56-4.42a14.94,14.94,0,0,1-3.81-10,14.76,14.76,0,0,1,3.23-9.36,13.16,13.16,0,0,1,10.94-5.23,13.62,13.62,0,0,1,11.27,5.35,14.92,14.92,0,0,1,3,9.44H808.57a11.22,11.22,0,0,0,3.08,7.88,9.77,9.77,0,0,0,7.34,3.08,11.78,11.78,0,0,0,4.1-.73,10.77,10.77,0,0,0,3.39-2A16.41,16.41,0,0,0,829.5,863.87Zm0-7.43a11.66,11.66,0,0,0-2.07-4.54,9.73,9.73,0,0,0-3.59-2.74,11.07,11.07,0,0,0-4.7-1,10.1,10.1,0,0,0-7,2.61,11.77,11.77,0,0,0-3.23,5.71Z"/><path class="cls-3" d="M870,859.74H854V873h-3.56v-27.6H854v11h16v-11h3.55V873H870Z"/><path class="cls-3" d="M888.8,845.43H907v3.07h-7.31V873H896.1V848.5h-7.3Z"/><path class="cls-3" d="M922.22,845.43h3.55v5.07a14.32,14.32,0,0,1,4.85-4.33,12.78,12.78,0,0,1,6.1-1.45A13.59,13.59,0,0,1,946.78,849a14,14,0,0,1,4.19,10.2,14.26,14.26,0,0,1-4.15,10.33,13.94,13.94,0,0,1-16.05,2.88,15.27,15.27,0,0,1-5-4.08v14.84h-3.55Zm14.21,2.72a10.45,10.45,0,0,0-7.76,3.21,11,11,0,0,0-3.15,8,11.31,11.31,0,0,0,1.41,5.65,10.19,10.19,0,0,0,4,4,11.14,11.14,0,0,0,5.53,1.47,10.41,10.41,0,0,0,5.38-1.48,10.89,10.89,0,0,0,4-4.15,11.19,11.19,0,0,0,0-11.14,10.64,10.64,0,0,0-9.45-5.55Z"/><path class="cls-2" d="M444.45,643.81H675.22l0,0c10.32-22.26,15.48-45.5,14.52-65.42-1.08-22.55-9.83-38.75-24.63-45.62a35.61,35.61,0,0,0-10.18-3c-27.71-3.77-61.06,23.78-81.1,67a161,161,0,0,0-13.21,42.81,137.53,137.53,0,0,0-22.43-31.82c-18.6-19.94-41.4-33.44-61-36.1-13-1.77-24,1.17-31.87,8.51-10.61,9.9-13.56,25.87-8.3,45A99.17,99.17,0,0,0,444.45,643.81Z"/><ellipse class="cls-4" cx="624.55" cy="619.26" rx="85.15" ry="44.54" transform="translate(-199.95 925.43) rotate(-65.13)"/><ellipse class="cls-4" cx="502.32" cy="640.23" rx="37.75" ry="72.18" transform="translate(-301.71 514.71) rotate(-43.01)"/></svg>