<svg id="Слой_1" data-name="Слой 1" xmlns="http://www.w3.org/2000/svg" viewBox="0 0 606.06 606.06"><defs><style>.cls-1{fill:#fff;}</style></defs><path class="cls-1" d="M568.63,0H528.11c-2.23,30.68-6.09,61.21-8.55,91.88-2,25.52-3.49,51.09-4.56,76.67-4.39,104.74-5.78,186.94-11.57,291.62-2.38,42.94-4.16,96.32-6.19,145.89h45.18c7.91-83.09,9.63-165.1,9.41-248.37-.29-104.13-2-209.38,12.18-312.78C566.05,30,567.49,15,568.63,0ZM535.82,506.57a9.19,9.19,0,0,1-15.69,6.5,9.5,9.5,0,0,1-2.7-6.5V487.23a9.2,9.2,0,0,1,15.7-6.5,9.49,9.49,0,0,1,2.69,6.5ZM534.36,151a9.37,9.37,0,0,1-9.2-9.2c-.22-5,4.39-9.19,9.2-9.19a9.36,9.36,0,0,1,9.2,9.19C543.78,146.8,539.17,151,534.36,151Z"/><path class="cls-1" d="M97.67,219.16c-3-24.32-6.46-34.49-5.89-59q.24-9.66.4-19.32C93,93.87,95.25,46.93,97.67,0H63.24q-.15,26.1-.37,52.14C62.08,140,60.34,227.6,55.41,315.53,50,412.41,43,509.19,37.43,606.06H66.79c4.92-87.55,11.46-175,16.73-262.53q1.55-25.51,2.93-51C87.5,272.89,101.94,254.3,97.67,219.16ZM61.37,469.37a9.36,9.36,0,0,1-9.2-9.2c-.22-5,4.39-9.2,9.2-9.2a9.36,9.36,0,0,1,9.19,9.2C70.79,465.14,66.18,469.37,61.37,469.37ZM86,233.66a9.52,9.52,0,0,1-2.7,6.5,9.2,9.2,0,0,1-4,2.37l-2.45.33a6.86,6.86,0,0,1-3.54-.8,8.25,8.25,0,0,1-4.86-4.86,6.83,6.83,0,0,1-.79-3.54v-9a9.54,9.54,0,0,1,2.69-6.5,9.23,9.23,0,0,1,4.06-2.37l2.44-.33a7,7,0,0,1,3.55.79,7,7,0,0,1,3,1.91,6.89,6.89,0,0,1,1.91,3,7,7,0,0,1,.79,3.55Z"/><ellipse class="cls-1" cx="220.91" cy="229.41" rx="37.75" ry="72.18" transform="translate(-97.11 212.34) rotate(-43.01)"/><path class="cls-1" d="M203,279.24a144.39,144.39,0,0,1-18-16.34c-14.38-15.42-24.81-33-29.37-49.59-5.26-19.1-2.31-35.07,8.3-45,7.86-7.34,18.88-10.28,31.87-8.52l.34.06c-1.09-8.18-2-16.26-2.55-24.1-1-14.9-1.94-29.79-2.66-44.62Q188.75,45.59,186.72,0H127.87c4.78,95.51,9.94,191.06,13.92,286.56.57,13.64,1,27.29,1.08,40.94q.6,77.61-2.2,155.31c-1.51,41-.43,82.16.85,123.25H200.3c-.33-32.74-.34-69.46-.36-74.45C199.65,446.68,203.35,363.47,203,279.24Zm-36-186.56a9.37,9.37,0,0,1,9.2,9.2c.22,5-4.39,9.2-9.2,9.2a9.37,9.37,0,0,1-9.2-9.2C157.63,96.91,162.24,92.68,167.05,92.68Zm1.29,172.93a9.35,9.35,0,0,1,9.19,9.2c.23,5-4.38,9.19-9.19,9.19a9.36,9.36,0,0,1-9.2-9.19C158.92,269.84,163.53,265.61,168.34,265.61Zm8.77,89.67a8.32,8.32,0,0,1-4.86,4.86,6.93,6.93,0,0,1-3.54.79h-9a9.52,9.52,0,0,1-6.5-2.7,9.2,9.2,0,0,1-2.37-4.05l-.33-2.45a10.17,10.17,0,0,1,2.7-6.5,10.23,10.23,0,0,1,6.5-2.69h9a9.56,9.56,0,0,1,6.5,2.69,9.23,9.23,0,0,1,2.37,4.06l.33,2.44A7,7,0,0,1,177.11,355.28Z"/><path class="cls-1" d="M317.26,357.85a35.29,35.29,0,0,1-6.84-6.17c-10.55-12.46-11.67-30.83-3.16-51.75a115.08,115.08,0,0,1,11.42-21q.52-12.13,1.32-24.26c3.46-51.89,3.4-103.93,2.6-155.9-.51-32.94-.24-65.84.34-98.73H244.52c-2.31,39.84-5.51,79.53-5.79,119.62-.13,19.52-.51,39.27-1,59.14a144.64,144.64,0,0,1,19.11,17.16c14.38,15.42,24.81,33,29.37,49.59,5.26,19.1,2.31,35.08-8.3,45C270,297.82,259,300.76,246,299a67.38,67.38,0,0,1-12.42-3c-1.39,35.91-2.72,71.69-3.48,106.81-1.32,60.43,5.72,117,3.41,177.38-.05,1.47-.32,13.74-.85,25.86h75.48c.84-10.5,1.77-20.4,1.86-21.83q2.4-39.94,4.86-79.91C317.85,455.59,317.19,406.72,317.26,357.85ZM263.71,109.79a9.52,9.52,0,0,1-6.5-2.7,9.17,9.17,0,0,1,0-13,9.48,9.48,0,0,1,6.5-2.7h16.75a9.57,9.57,0,0,1,6.51,2.7,9.2,9.2,0,0,1,0,13,9.5,9.5,0,0,1-6.51,2.7ZM246.9,314.86a9.46,9.46,0,0,1,6.5-2.7h19.33a9.19,9.19,0,0,1,6.5,15.7,9.46,9.46,0,0,1-6.5,2.7H253.4a9.19,9.19,0,0,1-6.5-15.7Zm20.24,99.7a9.49,9.49,0,0,1-8.41,5.66h-9a9.57,9.57,0,0,1-6.5-2.7,9.2,9.2,0,0,1-2.37-4c-.1-.82-.21-1.63-.32-2.45a8.86,8.86,0,0,1,5.65-8.4,7,7,0,0,1,3.54-.8h9a9.57,9.57,0,0,1,6.51,2.7,9.12,9.12,0,0,1,2.36,4.06l.33,2.44A6.93,6.93,0,0,1,267.14,414.56Zm22.52,72.67a9.2,9.2,0,0,1-15.7,6.51,9.49,9.49,0,0,1-2.69-6.51V467.9a9.2,9.2,0,0,1,15.7-6.5,9.47,9.47,0,0,1,2.69,6.5ZM288.2,384.3a9.35,9.35,0,0,1-9.2-9.19c-.22-5,4.39-9.2,9.2-9.2a9.36,9.36,0,0,1,9.19,9.2C297.62,380.07,293,384.3,288.2,384.3Zm5.48-206.21a9.35,9.35,0,0,1-9.2-9.19c-.22-5,4.38-9.2,9.2-9.2a9.36,9.36,0,0,1,9.19,9.2C303.09,173.86,298.49,178.09,293.68,178.09Z"/><ellipse class="cls-1" cx="384.06" cy="289.33" rx="85.15" ry="44.54" transform="translate(-96.01 316.7) rotate(-40.26)"/><path class="cls-1" d="M469.28,198.54c-1.28-53-9.14-106.29-12-159.23q-1.05-19.67-2-39.31H410.78c3.3,71.16,6.43,142.28,8.24,213.52,11.81-.89,22.39,1.18,30.69,6.49a35.58,35.58,0,0,1,8,7c10.55,12.46,11.67,30.83,3.16,51.75-7.35,18.09-21.38,36.59-39.54,52.24.2,25-.07,50-1.53,75-3.07,52.44-7.18,104.88-7.25,157.45q0,21.3,1,42.59h46.95c-1.26-31.74-1.53-63.52-1.08-95.28.75-52.71,3.61-105.36,5.93-158q.56-12.43.78-24.88C466.89,284.69,470.32,241.8,469.28,198.54Zm-14.83-15.46a9.56,9.56,0,0,1-2.69,6.5,9.17,9.17,0,0,1-13,0,9.46,9.46,0,0,1-2.7-6.5V168.9a9.52,9.52,0,0,1,2.7-6.5,9.2,9.2,0,0,1,13,0,9.49,9.49,0,0,1,2.69,6.5Z"/><path class="cls-1" d="M387.75,221.66c11.11-75,7.73-148.35,11.82-221.66H369.8c-2.29,24-4.56,48-6.18,72.09C359.86,128,358.38,184,356.46,239.93A153.5,153.5,0,0,1,387.75,221.66Z"/><path class="cls-1" d="M350.36,365c-4.81,72.51-10.91,144.93-15.49,217.45-.53,8.45-1,16.29-1.48,23.57h29.5q2.26-34.08,4.55-68.17c4.07-60.26,8.74-120.48,12.62-180.76A100.6,100.6,0,0,1,350.36,365Z"/></svg>