<svg id="Слой_1" data-name="Слой 1" xmlns="http://www.w3.org/2000/svg" viewBox="0 0 1263.32 505.32"><defs><style>.cls-1{fill:#004749;}.cls-2{fill:#010000;}.cls-3{fill:#00bc1f;}</style></defs><path class="cls-1" d="M196.89,299.86l-10.2,9.47v24.84H172.64V229.9h14.05v63.45l35.79-33.13h17.31L207.1,290.39l35.79,43.78H224.7Z"/><path class="cls-1" d="M263.75,330.55a38.26,38.26,0,0,1,0-66.7,39.76,39.76,0,0,1,20-5.11,39.1,39.1,0,0,1,19.74,5.11,38.34,38.34,0,0,1,0,66.7,39.19,39.19,0,0,1-19.74,5.1A39.86,39.86,0,0,1,263.75,330.55Zm32.39-11.24a24,24,0,0,0,8.87-9.17,27.31,27.31,0,0,0,0-25.88,24,24,0,0,0-21.29-12.5,24.57,24.57,0,0,0-12.65,3.33,23.83,23.83,0,0,0-8.95,9.17,27.39,27.39,0,0,0,0,25.88,23.83,23.83,0,0,0,8.95,9.17,24.57,24.57,0,0,0,12.65,3.33A23.93,23.93,0,0,0,296.14,319.31Z"/><path class="cls-1" d="M396.57,263.7a34.77,34.77,0,0,1,12.57,13.68,45.18,45.18,0,0,1,0,39.64,34.77,34.77,0,0,1-12.57,13.68,33,33,0,0,1-17.75,4.95,30.24,30.24,0,0,1-13.91-3.32,32.76,32.76,0,0,1-11.09-9.25v36.24H339.77v-99.1h13.31v12a34.17,34.17,0,0,1,11.39-9.91,30.11,30.11,0,0,1,14.35-3.55A33,33,0,0,1,396.57,263.7Zm-8.43,55.68a22.39,22.39,0,0,0,8.13-9.09,30.42,30.42,0,0,0,0-26.18,22.41,22.41,0,0,0-8.13-9.1,21.52,21.52,0,0,0-11.69-3.25,22.06,22.06,0,0,0-20.11,12.35,30.42,30.42,0,0,0,0,26.18,22.1,22.1,0,0,0,20.11,12.35A21.53,21.53,0,0,0,388.14,319.38Z"/><path class="cls-1" d="M444.19,330.55a38.26,38.26,0,0,1,0-66.7,39.76,39.76,0,0,1,20-5.11,39.1,39.1,0,0,1,19.74,5.11,38.34,38.34,0,0,1,0,66.7,39.19,39.19,0,0,1-19.74,5.1A39.86,39.86,0,0,1,444.19,330.55Zm32.39-11.24a24,24,0,0,0,8.87-9.17,27.31,27.31,0,0,0,0-25.88,24,24,0,0,0-21.29-12.5,24.57,24.57,0,0,0-12.65,3.33,23.83,23.83,0,0,0-8.95,9.17,27.39,27.39,0,0,0,0,25.88,23.83,23.83,0,0,0,8.95,9.17,24.57,24.57,0,0,0,12.65,3.33A23.93,23.93,0,0,0,476.58,319.31Z"/><path class="cls-1" d="M574.64,334.17,549.2,274.12l-25.59,60.05H508.38l31.8-73.95h18.34l31.8,73.95Z"/><path class="cls-1" d="M653.25,263.62a39.3,39.3,0,0,0-19.89-4.88,38.37,38.37,0,0,0-19.45,5,35.3,35.3,0,0,0-13.54,13.75,42.39,42.39,0,0,0,0,39.49A35.1,35.1,0,0,0,614,330.7a38.89,38.89,0,0,0,19.53,4.95,37.58,37.58,0,0,0,21.74-6.58,33.28,33.28,0,0,0,13.16-16.93H653.92q-6.07,10.5-20.41,10.5A23.59,23.59,0,0,1,610.14,303h60.64c.09-1,.15-2.52.15-4.59a45.4,45.4,0,0,0-4.59-20.93A32.92,32.92,0,0,0,653.25,263.62Zm-43,27.07a23.31,23.31,0,0,1,7.77-14.05,22.08,22.08,0,0,1,15-5.47,23.11,23.11,0,0,1,15.46,5.32,20.49,20.49,0,0,1,7.17,14.2Z"/><path class="cls-1" d="M750.05,313.32a19.08,19.08,0,0,1-6.65,15q-6.66,5.85-18.34,5.84H687.93V260.22h37.13q11.09,0,17.52,5.7a19.34,19.34,0,0,1,4,23.81,17.28,17.28,0,0,1-7.47,6.73Q750,301.94,750.05,313.32ZM723.43,291q5.48,0,8.28-2.52c1.87-1.67,2.81-4.14,2.81-7.39q0-9-11.09-9H701.69V291Zm9.1,28.76q3-2.58,3-7.47a8.5,8.5,0,0,0-3-7q-3-2.44-8.95-2.44H701.69v19.52h21.89Q729.49,322.34,732.53,319.75Z"/><path class="cls-1" d="M766.32,277.75a37.68,37.68,0,0,1,14.2-13.9,39.76,39.76,0,0,1,20-5.11,36.57,36.57,0,0,1,22.11,7.18,33.22,33.22,0,0,1,12.94,18.71H820.16a20.18,20.18,0,0,0-8.06-9.4,22.86,22.86,0,0,0-12.35-3.47,23.1,23.1,0,0,0-21,12.5,28.48,28.48,0,0,0,0,25.88,23.1,23.1,0,0,0,21,12.5,22.78,22.78,0,0,0,12.35-3.48,20.11,20.11,0,0,0,8.06-9.39h15.38a33.26,33.26,0,0,1-12.94,18.71,36.63,36.63,0,0,1-22.11,7.17,39.86,39.86,0,0,1-20-5.1,38.61,38.61,0,0,1-14.2-52.8Z"/><path class="cls-1" d="M875.33,299.86l-10.21,9.47v24.84h-14V229.9h14v63.45l35.79-33.13h17.31l-32.69,30.17,35.79,43.78H903.13Z"/><path class="cls-1" d="M999,260.22v73.95H985.66V322.34A31.08,31.08,0,0,1,975.09,332a27.79,27.79,0,0,1-13.83,3.62,33.8,33.8,0,0,1-16.2-3.84,27.89,27.89,0,0,1-11.38-11.61q-4.21-7.77-4.22-19v-41h14V300.9q0,9.75,5.77,15.53a19.68,19.68,0,0,0,14.49,5.76,20.49,20.49,0,0,0,11.17-3,20.19,20.19,0,0,0,7.4-8.21,24.82,24.82,0,0,0,2.58-11.24V260.22Z"/><path class="cls-1" d="M1090.68,260.22v73.95h-13.31V322.34a31.2,31.2,0,0,1-10.58,9.69,27.79,27.79,0,0,1-13.83,3.62,33.76,33.76,0,0,1-16.19-3.84,27.86,27.86,0,0,1-11.39-11.61q-4.22-7.77-4.22-19v-41h14.05V300.9q0,9.75,5.77,15.53a19.69,19.69,0,0,0,14.5,5.76,20.48,20.48,0,0,0,11.16-3A20.12,20.12,0,0,0,1074,311a24.83,24.83,0,0,0,2.59-11.24V260.22Zm-53-13.31a22.7,22.7,0,0,1-8.29-16.27h12.13a12.86,12.86,0,0,0,4.74,8.8q4,3.18,10.35,3.18t10.35-3.18a12.89,12.89,0,0,0,4.73-8.8h12.13a22.65,22.65,0,0,1-8.28,16.27q-7.39,6.06-18.93,6.06T1037.73,246.91Z"/><path class="cls-2" d="M278.28,402.6v-2.9h11.63a10.68,10.68,0,0,0-3.85-6.2,12,12,0,0,0-16.63,2.16L266.77,394a10.91,10.91,0,0,1,5-4.49,16,16,0,0,1,7-1.59,14.35,14.35,0,0,1,10.46,4,13.26,13.26,0,0,1,4.14,9.86,12.91,12.91,0,0,1-4,9.49,14,14,0,0,1-10.32,4,17.17,17.17,0,0,1-7-1.47,11.47,11.47,0,0,1-5.2-4.44l2.66-1.75a11.49,11.49,0,0,0,9.41,4.57,11.22,11.22,0,0,0,7.47-2.62,10.22,10.22,0,0,0,3.6-7Z"/><path class="cls-2" d="M309.31,388.6h3.35v11l12.06-11h4.66l-13.21,11.91,14.25,14.12h-4.74l-12-12-1,.93v11.1h-3.35Z"/><path class="cls-2" d="M356,387.93a12.88,12.88,0,0,1,10,4.35,14,14,0,0,1-.2,18.94,13.76,13.76,0,0,1-19.56,0,14,14,0,0,1-.2-18.91A12.9,12.9,0,0,1,356,387.93Zm0,3.28a9.69,9.69,0,0,0-7.18,3.08,10.33,10.33,0,0,0-3,7.47A10.61,10.61,0,0,0,347.2,407a9.72,9.72,0,0,0,3.7,3.77,10.5,10.5,0,0,0,10.23,0,9.7,9.7,0,0,0,3.69-3.77,10.51,10.51,0,0,0,1.37-5.26,10.3,10.3,0,0,0-3-7.47A9.7,9.7,0,0,0,356,391.21Z"/><path class="cls-2" d="M407.63,414.63h-3.57l-8.71-19-8.64,19h-3.59l11.93-26h.6Z"/><path class="cls-2" d="M434.86,387.93a12.89,12.89,0,0,1,10,4.35,14,14,0,0,1-.2,18.94,13.76,13.76,0,0,1-19.56,0,14,14,0,0,1-.2-18.91A12.89,12.89,0,0,1,434.86,387.93Zm0,3.28a9.69,9.69,0,0,0-7.18,3.08,10.33,10.33,0,0,0-3,7.47A10.61,10.61,0,0,0,426,407a9.72,9.72,0,0,0,3.7,3.77,10.5,10.5,0,0,0,10.23,0,9.7,9.7,0,0,0,3.69-3.77,10.51,10.51,0,0,0,1.37-5.26,10.3,10.3,0,0,0-3-7.47A9.7,9.7,0,0,0,434.85,391.21Z"/><path class="cls-2" d="M467.78,391.54v23.09h-3.35v-26h13.16v2.94Z"/><path class="cls-2" d="M495.26,388.6v19.26l19.12-19.26h.26v26h-3.35V395.55l-19,19.08h-.41v-26Z"/><path class="cls-2" d="M543.53,402.88h-5.87q-4,0-5.92-2.05a8.08,8.08,0,0,1-1.92-5.72V388.6h3.28v4.71q0,4.54,1.29,5.64a6.61,6.61,0,0,0,4.25,1.09h4.89V388.6h3.35v26h-3.35Z"/><path class="cls-2" d="M586.06,406l2.83,1.49a15.7,15.7,0,0,1-3.21,4.4,12.88,12.88,0,0,1-4.1,2.55,14.33,14.33,0,0,1-5.15.87q-6.37,0-10-4.17a14.07,14.07,0,0,1-3.59-9.44,13.88,13.88,0,0,1,3-8.83,12.42,12.42,0,0,1,10.32-4.93A12.82,12.82,0,0,1,586.87,393a14.09,14.09,0,0,1,2.88,8.9H566.32a10.61,10.61,0,0,0,2.9,7.43,9.23,9.23,0,0,0,6.92,2.9,11.12,11.12,0,0,0,3.87-.69,10.16,10.16,0,0,0,3.2-1.83A15.73,15.73,0,0,0,586.06,406Zm0-7a11.26,11.26,0,0,0-1.95-4.28,9.18,9.18,0,0,0-3.39-2.58,10.3,10.3,0,0,0-4.43-1,9.56,9.56,0,0,0-6.59,2.46,11.11,11.11,0,0,0-3,5.38Z"/><path class="cls-2" d="M631.06,394l-2.66,1.65a11.1,11.1,0,0,0-9.39-4.57,10.88,10.88,0,0,0-7.9,3.06,10,10,0,0,0-3.14,7.43,10.58,10.58,0,0,0,1.44,5.35,10.26,10.26,0,0,0,4,3.9,11.59,11.59,0,0,0,5.65,1.38,11.41,11.41,0,0,0,9.37-4.57l2.66,1.75a12.59,12.59,0,0,1-5,4.36,16,16,0,0,1-7.16,1.55,14.17,14.17,0,0,1-10.24-3.92,12.79,12.79,0,0,1-4.07-9.55,13.7,13.7,0,0,1,1.9-7,13.39,13.39,0,0,1,5.23-5.06,15.29,15.29,0,0,1,7.44-1.82,15.79,15.79,0,0,1,5,.79,13.7,13.7,0,0,1,4.08,2.06A11,11,0,0,1,631.06,394Z"/><path class="cls-2" d="M647.29,388.6h3.35v11l12.06-11h4.67l-13.21,11.91,14.25,14.12h-4.74l-12-12-1.06.93v11.1h-3.35Z"/><path class="cls-2" d="M685,388.6v19.26l19.12-19.26h.26v26h-3.35V395.55l-19,19.08h-.4v-26Z"/><path class="cls-2" d="M725,388.6v19.26l19.12-19.26h.26v26h-3.35V395.55l-19,19.08h-.41v-26Zm-.48-10.46h3.16a5,5,0,0,0,2.18,1.87,7.85,7.85,0,0,0,3.25.62,7.28,7.28,0,0,0,3.09-.55,6.16,6.16,0,0,0,2.22-1.94h3.07a6,6,0,0,1-2.69,3.6,10.09,10.09,0,0,1-5.71,1.45,10.46,10.46,0,0,1-5.74-1.42A6.2,6.2,0,0,1,724.55,378.14Z"/><path class="cls-2" d="M832.74,414.63H808.41v-26h3.35v22.87H826.9V388.6h3.35v22.87h5.65v7.28h-3.16Z"/><path class="cls-2" d="M872.11,406l2.83,1.49a15.7,15.7,0,0,1-3.21,4.4,12.88,12.88,0,0,1-4.1,2.55,14.3,14.3,0,0,1-5.15.87q-6.36,0-10-4.17a14.12,14.12,0,0,1-3.59-9.44,13.88,13.88,0,0,1,3-8.83,12.42,12.42,0,0,1,10.32-4.93A12.82,12.82,0,0,1,872.92,393a14,14,0,0,1,2.88,8.9H852.38a10.56,10.56,0,0,0,2.89,7.43,9.23,9.23,0,0,0,6.93,2.9,11.11,11.11,0,0,0,3.86-.69,10.16,10.16,0,0,0,3.2-1.83A15.73,15.73,0,0,0,872.11,406Zm0-7a11,11,0,0,0-2-4.28,9.1,9.1,0,0,0-3.39-2.58,10.27,10.27,0,0,0-4.43-1,9.56,9.56,0,0,0-6.59,2.46,11.19,11.19,0,0,0-3,5.38Z"/><path class="cls-2" d="M910.34,402.09H895.19v12.54h-3.35v-26h3.35v10.33h15.15V388.6h3.35v26h-3.35Z"/><path class="cls-2" d="M928,388.6h17.13v2.89h-6.89v23.14h-3.35V391.49H928Z"/><path class="cls-2" d="M959.56,388.6h3.35v4.78a13.51,13.51,0,0,1,4.56-4.09,12.12,12.12,0,0,1,5.76-1.36,12.86,12.86,0,0,1,9.49,4,13.21,13.21,0,0,1,3.95,9.62,13.46,13.46,0,0,1-3.91,9.75A13.16,13.16,0,0,1,967.62,414a14.4,14.4,0,0,1-4.71-3.85v14h-3.35Zm13.4,2.56a9.85,9.85,0,0,0-7.32,3,10.4,10.4,0,0,0-3,7.56,10.77,10.77,0,0,0,1.32,5.33,9.79,9.79,0,0,0,3.8,3.75,10.53,10.53,0,0,0,5.21,1.38,9.89,9.89,0,0,0,5.08-1.39,10.37,10.37,0,0,0,3.78-3.91,10.55,10.55,0,0,0,0-10.52,10.07,10.07,0,0,0-8.91-5.23Z"/><ellipse class="cls-3" cx="680.67" cy="160.68" rx="85.15" ry="44.54" transform="translate(248.61 710.63) rotate(-65.13)"/><ellipse class="cls-3" cx="558.44" cy="181.65" rx="37.75" ry="72.18" transform="translate(26.18 429.74) rotate(-43.01)"/></svg>