<svg id="Слой_1" data-name="Слой 1" xmlns="http://www.w3.org/2000/svg" viewBox="0 0 606.06 606.06"><defs><style>.cls-1{fill:#004749;}.cls-2{fill:#fff;}.cls-3{fill:#00bc1f;}</style></defs><rect class="cls-1" width="606.06" height="606.06"/><path class="cls-2" d="M542.42,606.06c7.91-83.09,9.63-165.1,9.41-248.37-.29-104.13-2-209.38,12.18-312.78C566.05,30,567.49,15,568.63,0H528.11c-2.23,30.68-6.09,61.21-8.55,91.88-2,25.52-3.49,51.09-4.56,76.67-4.39,104.74-5.78,186.94-11.57,291.62-2.38,42.95-4.16,96.32-6.19,145.89Z"/><path class="cls-2" d="M419.79,406c-3.07,52.44-7.18,104.88-7.25,157.45q0,21.3,1,42.59h46.95c-1.26-31.74-1.53-63.52-1.08-95.28.75-52.71,3.61-105.36,5.93-158q.56-12.43.78-24.88c.81-43.19,4.24-86.08,3.2-129.34-1.28-53-9.14-106.29-12-159.23q-1.05-19.67-2-39.31H410.78c3.88,83.77,7.56,167.48,9.08,251.39C420.8,303,422.79,354.51,419.79,406Z"/><path class="cls-2" d="M362.89,606.06q2.26-34.08,4.55-68.17c5.11-75.75,11.2-151.43,15.44-227.24,1.52-27.27-.56-54.88,3.76-81.85C399.08,151.29,395.35,75.63,399.57,0H369.8c-2.29,24-4.56,48-6.18,72.09-6,89.14-6.18,178.56-11.64,267.68-5,81-12,161.78-17.11,242.72-.53,8.45-1,16.29-1.48,23.57Z"/><path class="cls-2" d="M233.52,580.2c-.05,1.47-.32,13.74-.85,25.86h75.48c.84-10.5,1.77-20.4,1.86-21.83q2.4-39.94,4.86-79.91c5.07-83.06-.41-166.53,5.13-249.69,3.46-51.89,3.4-103.93,2.6-155.9-.51-32.94-.24-65.84.34-98.73H244.52c-2.31,39.84-5.51,79.53-5.79,119.62-.63,92.63-6.6,190.2-8.62,283.2C228.79,463.25,235.83,519.8,233.52,580.2Z"/><path class="cls-2" d="M142.87,327.5q.6,77.61-2.2,155.31c-1.51,41-.43,82.16.85,123.25H200.3c-.33-32.74-.34-69.46-.36-74.45-.36-105.69,5.47-208.73,2-314.38,0-26.3-6.67-55.22-8.37-81.45-1-14.9-1.94-29.79-2.66-44.62Q188.75,45.59,186.72,0H127.87c4.78,95.51,9.94,191.06,13.92,286.56C142.36,300.2,142.76,313.85,142.87,327.5Z"/><path class="cls-2" d="M66.79,606.06c4.92-87.55,11.46-175,16.73-262.53q1.55-25.51,2.93-51c1-19.61,15.49-38.2,11.22-73.34-3-24.32-6.46-34.49-5.89-59q.24-9.66.4-19.32C93,93.87,95.25,46.93,97.67,0H63.24q-.15,26.1-.37,52.14C62.08,140,60.34,227.6,55.41,315.53,50,412.41,43,509.19,37.43,606.06Z"/><path class="cls-1" d="M288.2,384.3c4.81,0,9.42-4.23,9.19-9.19a9.36,9.36,0,0,0-9.19-9.2c-4.81,0-9.42,4.23-9.2,9.2a9.35,9.35,0,0,0,9.2,9.19Z"/><path class="cls-1" d="M289.66,487.23V467.9a9.47,9.47,0,0,0-2.69-6.5,9.2,9.2,0,0,0-15.7,6.5v19.33a9.49,9.49,0,0,0,2.69,6.51,9.2,9.2,0,0,0,15.7-6.51Z"/><path class="cls-1" d="M535.82,506.57V487.23a9.49,9.49,0,0,0-2.69-6.5,9.2,9.2,0,0,0-15.7,6.5v19.34a9.5,9.5,0,0,0,2.7,6.5,9.19,9.19,0,0,0,15.69-6.5Z"/><path class="cls-1" d="M263.71,109.79h16.75a9.5,9.5,0,0,0,6.51-2.7,9.2,9.2,0,0,0,0-13,9.57,9.57,0,0,0-6.51-2.7H263.71a9.48,9.48,0,0,0-6.5,2.7,9.17,9.17,0,0,0,0,13,9.52,9.52,0,0,0,6.5,2.7Z"/><path class="cls-1" d="M454.45,183.08V168.9a9.49,9.49,0,0,0-2.69-6.5,9.36,9.36,0,0,0-6.5-2.69,9.26,9.26,0,0,0-6.5,2.69,9.52,9.52,0,0,0-2.7,6.5v14.18a9.46,9.46,0,0,0,2.7,6.5,9.17,9.17,0,0,0,13,0,9.56,9.56,0,0,0,2.69-6.5Z"/><path class="cls-1" d="M534.36,151c4.81,0,9.42-4.23,9.2-9.2a9.36,9.36,0,0,0-9.2-9.19c-4.81,0-9.42,4.23-9.2,9.19a9.37,9.37,0,0,0,9.2,9.2Z"/><path class="cls-1" d="M293.68,178.09c4.81,0,9.41-4.23,9.19-9.19a9.36,9.36,0,0,0-9.19-9.2c-4.82,0-9.42,4.23-9.2,9.2a9.35,9.35,0,0,0,9.2,9.19Z"/><path class="cls-1" d="M168.34,284c4.81,0,9.42-4.23,9.19-9.19a9.35,9.35,0,0,0-9.19-9.2c-4.81,0-9.42,4.23-9.2,9.2a9.36,9.36,0,0,0,9.2,9.19Z"/><path class="cls-1" d="M167.05,111.08c4.81,0,9.42-4.23,9.2-9.2a9.37,9.37,0,0,0-9.2-9.2c-4.81,0-9.42,4.23-9.2,9.2a9.37,9.37,0,0,0,9.2,9.2Z"/><path class="cls-1" d="M253.4,330.56h19.33a9.46,9.46,0,0,0,6.5-2.7,9.19,9.19,0,0,0-6.5-15.7H253.4a9.46,9.46,0,0,0-6.5,2.7,9.19,9.19,0,0,0,6.5,15.7Z"/><path class="cls-1" d="M61.37,469.37c4.81,0,9.42-4.23,9.19-9.2a9.36,9.36,0,0,0-9.19-9.2c-4.81,0-9.42,4.23-9.2,9.2a9.36,9.36,0,0,0,9.2,9.2Z"/><path class="cls-1" d="M159.69,360.93h9a10.17,10.17,0,0,0,6.5-2.7,6.81,6.81,0,0,0,1.9-3,7,7,0,0,0,.8-3.55l-.33-2.44a9.23,9.23,0,0,0-2.37-4.06,9.56,9.56,0,0,0-6.5-2.69h-9a10.23,10.23,0,0,0-6.5,2.69,7,7,0,0,0-1.91,3,7.08,7.08,0,0,0-.79,3.54l.33,2.45a9.2,9.2,0,0,0,2.37,4.05,9.52,9.52,0,0,0,6.5,2.7Z"/><path class="cls-1" d="M267.6,408.58a9.12,9.12,0,0,0-2.36-4.06,9.57,9.57,0,0,0-6.51-2.7h-9a7,7,0,0,0-3.54.8,9.44,9.44,0,0,0-5.65,8.4c.11.82.22,1.63.32,2.45a9.2,9.2,0,0,0,2.37,4,9.57,9.57,0,0,0,6.5,2.7h9a7,7,0,0,0,3.55-.8,9.44,9.44,0,0,0,5.65-8.4Z"/><path class="cls-1" d="M74.31,215.77a9.23,9.23,0,0,0-4.06,2.37,9.54,9.54,0,0,0-2.69,6.5v9a10.23,10.23,0,0,0,2.69,6.5,6.84,6.84,0,0,0,3,1.9,6.86,6.86,0,0,0,3.54.8l2.45-.33a9.2,9.2,0,0,0,4-2.37,9.52,9.52,0,0,0,2.7-6.5v-9a7,7,0,0,0-.79-3.55,6.89,6.89,0,0,0-1.91-3,7,7,0,0,0-3-1.91,7,7,0,0,0-3.55-.79Z"/><path class="cls-2" d="M318.41,358.65a35.58,35.58,0,0,1-8-7c-10.55-12.46-11.67-30.83-3.16-51.75,7.51-18.47,22-37.38,40.69-53.24,36.36-30.79,78.21-41.76,101.76-26.68a35.58,35.58,0,0,1,8,7c10.55,12.46,11.67,30.83,3.16,51.75-7.51,18.47-22,37.38-40.69,53.24C383.81,362.76,342,373.73,318.41,358.65Z"/><ellipse class="cls-3" cx="384.06" cy="289.33" rx="85.15" ry="44.54" transform="translate(-96.01 316.7) rotate(-40.26)"/><path class="cls-2" d="M246,299c-19.6-2.67-42.4-16.17-61-36.1-14.38-15.42-24.81-33-29.37-49.59-5.26-19.1-2.31-35.07,8.3-45,7.86-7.34,18.88-10.28,31.87-8.52,19.6,2.67,42.4,16.17,61,36.1,14.38,15.42,24.81,33,29.37,49.59,5.26,19.1,2.31,35.08-8.3,45C270,297.82,259,300.76,246,299Z"/><ellipse class="cls-3" cx="220.91" cy="229.41" rx="37.75" ry="72.18" transform="translate(-97.11 212.34) rotate(-43.01)"/></svg>