<svg id="Слой_1" data-name="Слой 1" xmlns="http://www.w3.org/2000/svg" viewBox="0 0 315.33 173.43"><defs><style>.cls-1{fill:#fff;}.cls-2{fill:#e78712;}.cls-3{fill:#81bb32;}</style></defs><polygon points="113.73 36.47 120.46 38.02 115.27 43.98 113.73 36.47"/><path d="M95.83,70.76a.92.92,0,0,1-.93-.92V61a.93.93,0,1,1,1.85,0v8.86A.92.92,0,0,1,95.83,70.76Z"/><path d="M90.27,70.76a.92.92,0,0,1-.93-.92V61a.93.93,0,1,1,1.85,0v8.86A.92.92,0,0,1,90.27,70.76Z"/><path d="M72.38,119.56l-20-40.06-20.1,40.06H26.49L52.35,67.91l25.79,51.65Z"/><path d="M87.06,73.07V91.16h34.13v5.15H87.06V114.4h46.49v5.16H81.9V67.91h26.64v5.16Z"/><path d="M171.43,79.1a20.28,20.28,0,0,0-14.54-6,20.67,20.67,0,1,0,0,41.33,20.34,20.34,0,0,0,14.54-6.1l3.68,3.62a25.32,25.32,0,0,1-18.22,7.64,25.83,25.83,0,1,1,0-51.65,25.26,25.26,0,0,1,18.22,7.57Z"/><polygon points="87.06 124.89 81.9 124.89 81.9 141.84 98.54 141.84 98.54 136.69 87.06 136.69 87.06 124.89"/><path d="M117.2,43.28l0-.2a14,14,0,0,0-.58-1.94,14.7,14.7,0,0,0-13.79-9.55,15.3,15.3,0,0,0-3.27.36C85.1,35.22,90.63,55.36,75.27,55.68l-1.12,0a12.29,12.29,0,0,0,4.78,3.52,28.8,28.8,0,0,0,5.78,2,45.58,45.58,0,0,0,10.41,1.16,43.13,43.13,0,0,0,5.85-.38l.55-.09a22.75,22.75,0,0,0,4.24-1l.26-.09.3-.12C113.72,57.7,118.84,51,117.2,43.28Z"/><circle class="cls-1" cx="105.38" cy="40.78" r="6.39"/><circle cx="104.64" cy="41.91" r="3.89"/><circle class="cls-1" cx="102.7" cy="43.98" r="1.94"/><path d="M77.92,50.41s11.33-6.6,15.65-6.08A7.88,7.88,0,1,1,91.72,60C87.39,59.47,77.92,50.41,77.92,50.41Z"/><path class="cls-1" d="M93.57,44.33c-1.48-.18-3.79.48-6.19,1.43C86,49,84.45,52,81.73,53.8c3.13,2.63,7.45,5.88,10,6.18a7.88,7.88,0,1,0,1.85-15.65Z"/><path class="cls-2" d="M262.33,118.07v13.79a24.46,24.46,0,0,1-13.76-8,21.71,21.71,0,0,1-5.16-14.59h13.36a9.68,9.68,0,0,0,1.26,4.81A10.68,10.68,0,0,0,262.33,118.07ZM245.76,60h13.79V85.87H267c5.72,0,10.8,3.17,15.23,7.5a21.25,21.25,0,0,1,6.66,15.78,22.19,22.19,0,0,1-5.24,14.61,23.8,23.8,0,0,1-13.79,8.1V118.07a10.83,10.83,0,0,0,4.28-4,9.69,9.69,0,0,0,1.28-4.76,9.41,9.41,0,0,0-1.6-5.77c-1.43-1.92-3.67-2.89-6.74-2.89H245.76ZM267,60h19.88V73.79H267Z"/><polygon class="cls-2" points="229.54 109.2 229.54 57.37 215.76 72.66 215.76 141.47 229.54 141.47 229.54 122.98 236.6 122.98 236.6 109.2 229.54 109.2"/><path class="cls-2" d="M226.31,40.37A146.56,146.56,0,0,1,201.82,70C187.57,83.13,166.6,92,158.17,95.2l1.17,2.63c8.72-3.35,29.93-12.35,44.43-25.75A150.3,150.3,0,0,0,228.69,42Z"/><path class="cls-2" d="M184,96c.07-4.15,3.37-7.18,3.59-7.37A109.3,109.3,0,0,0,206.8,74.81,149.21,149.21,0,0,0,232,44.25l-2.38-1.62a145.83,145.83,0,0,1-24.78,30.06c-15.22,14.08-38.13,23.22-45.2,25.82l1.17,2.64c2.14-.8,5.56-2.12,9.74-4l51.29,25.46,1.28-2.58-34.91-17.32C186.92,101.69,183.92,98.66,184,96Zm-10-.33c2.53-1.18,5.25-2.51,8.06-4a11.68,11.68,0,0,0-.91,4.27,8,8,0,0,0,.95,3.74Z"/><polygon class="cls-3" points="212.28 75.72 211.82 77.62 211.94 80.33 211.19 81.85 211.69 82.1 213.27 82.74 212.83 85.06 208.59 85.06 205.69 83.94 202.53 87.15 200.57 86.08 199.88 88.17 198.42 87.15 197.41 88.17 198.74 89.88 197.41 90.89 196.02 90.57 196.68 92.4 194.57 94.49 195.26 97.46 191.91 98.85 193.75 101.95 197.09 103.34 198.61 102.96 197.27 107.04 199.29 108.25 206.67 111.91 207.9 109.91 210.55 110.7 210.74 112.63 212.96 114.02 212.86 114.98 215.76 116.42 215.76 72.66 217.87 70.32 213.73 74.63 212.28 75.72"/></svg>